PathFileType	4	(X/Y/Z)	/Users/niels/Desktop/University/Third Semester/Perception and Action/Exam/Gymnastics Motion Tracking/Code for Gym Tracking/Analyzed Data/Webcam_Backflip/id12_2_trajectory_Sports2D/id12_2_trajectory_Sports2D_px_person00.trc
DataRate	CameraRate	NumFrames	NumMarkers	Units	OrigDataRate	OrigDataStartFrame	OrigNumFrames
29.714285714285715	29.714285714285715	9	22	m	29.714285714285715	13	105
Frame#	Time	Hip			RHip			RKnee			RAnkle			RBigToe			RSmallToe			RHeel			LHip			LKnee			LAnkle			LBigToe			LSmallToe			LHeel			Neck			Head			Nose			RShoulder			RElbow			RWrist			LShoulder			LElbow			LWrist		
		X1	Y1	Z1	X2	Y2	Z2	X3	Y3	Z3	X4	Y4	Z4	X5	Y5	Z5	X6	Y6	Z6	X7	Y7	Z7	X8	Y8	Z8	X9	Y9	Z9	X10	Y10	Z10	X11	Y11	Z11	X12	Y12	Z12	X13	Y13	Z13	X14	Y14	Z14	X15	Y15	Z15	X16	Y16	Z16	X17	Y17	Z17	X18	Y18	Z18	X19	Y19	Z19	X20	Y20	Z20	X21	Y21	Z21	X22	Y22	Z22
13	0.4375	0.8860459857282974	-0.5907898247613868	0.0	0.8631549477675757	-0.5894425498181489	0.0	0.8474898952721039	-0.7789145427881411	0.0	0.746844999370294	-0.9236156222593165	0.0	0.782803064858683	-0.981367521209175	0.0	0.7965949689380468	-0.9792059479677027	0.0	0.7542154041600456	-0.9247263576509487	0.0	0.9254295680839804	-0.5949335691652649	0.0	0.9955652179936345	-0.7650679895285947	0.0	0.9801605331499192	-0.9585149035392629	0.0	1.0485281807532025	-0.9946189377315912	0.0	1.0388894282661199	-0.9858663758253785	0.0	0.9634535476000863	-0.9805361430879581	0.0	0.9499274272741125	-0.3153806335572015	0.0	0.9974979832978956	-0.19513242058357613	0.0	1.017197735437003	-0.27439281514309966	0.0	0.9073846733337934	-0.3499198232134257	0.0	0.9069237387793597	-0.4988570153896129	0.0	0.9714581429336474	-0.6200116437214438	0.0	0.9608080251048225	-0.3575159346376239	0.0	0.9573267303074132	-0.49025005872431365	0.0	0.9943790124889732	-0.5999977726416268	0.0
14	0.47115384615384615	0.900087696502193	-0.5925813373595711	0.0	0.8815950243549847	-0.591941599459471	0.0	0.8754469560405623	-0.7808009589589334	0.0	0.7717912863670506	-0.9196533375412885	0.0	0.8083939374377748	-0.9831153282505739	0.0	0.8382666716034659	-0.9804750027684562	0.0	0.7907677584526739	-0.9161981761445769	0.0	0.9379833477957187	-0.5962741519344011	0.0	1.0060884556962706	-0.7669767195712055	0.0	0.9803650482446167	-0.9559383622705868	0.0	1.0350477449273394	-0.9950133843252966	0.0	1.0241622697370378	-0.986749360548636	0.0	0.9628503792391088	-0.9735968911441543	0.0	0.9669790519949427	-0.3171366029842905	0.0	1.0153348390538341	-0.19672035384962386	0.0	1.034971236963868	-0.2759697746511014	0.0	0.9269167085217281	-0.35194780877641646	0.0	0.9107119993668228	-0.49861576071054525	0.0	0.9461901747862322	-0.6249213245503934	0.0	0.9708950872750236	-0.35624008283071135	0.0	0.9485218971334439	-0.49062900009646426	0.0	0.9697931784304022	-0.6013752973085111	0.0
15	0.5048076923076923	0.9137430562182209	-0.5924774365633854	0.0	0.8993411069280065	-0.5923283717840913	0.0	0.904654095330125	-0.7807695863618429	0.0	0.8025501550209083	-0.9176234251970748	0.0	0.8421089194345823	-0.9849616608515301	0.0	0.8787115636064259	-0.9826561536880581	0.0	0.8260495060332824	-0.9119357988212012	0.0	0.9486280262335385	-0.5953437849825447	0.0	1.0140985721697742	-0.7678601620986021	0.0	0.9797043945793464	-0.9526630198796636	0.0	1.0207473535846252	-0.9943461535876088	0.0	1.0088746451845192	-0.9864759164941596	0.0	0.9616711517094834	-0.9657711499955401	0.0	0.9834392517551263	-0.3170671774150626	0.0	1.0329690293702123	-0.19648816614355544	0.0	1.052442223900457	-0.27560760949742835	0.0	0.9455026602928716	-0.35112056494140637	0.0	0.9105762837463993	-0.49142194279260937	0.0	0.9128269819016527	-0.61753040545717	0.0	0.9804595433052873	-0.35281952203187256	0.0	0.9342299817211159	-0.4857594598795014	0.0	0.9346386050565831	-0.5936927348297869	0.0
16	0.5384615384615384	0.9259529599771607	-0.5896943692781604	0.0	0.9147513454466072	-0.5894896114924306	0.0	0.9332058440638539	-0.7785538642665126	0.0	0.8337630206390404	-0.918136897805268	0.0	0.8781884500779922	-0.9871967787294883	0.0	0.9075469443686903	-0.9858905392705171	0.0	0.8511101921591806	-0.9141053563071484	0.0	0.956832456690118	-0.5914511852533214	0.0	1.0189555592710182	-0.7674551043170982	0.0	0.9784863891863492	-0.9501653983510524	0.0	1.0135126588834094	-0.9932077880750801	0.0	1.0008864256234153	-0.9856486059244248	0.0	0.9600233715405022	-0.9606514654133775	0.0	0.9989337467716753	-0.3148540280241644	0.0	1.0502047269689203	-0.1943045272447429	0.0	1.0691230071893156	-0.2730539932903852	0.0	0.9626078842636103	-0.346743265273452	0.0	0.9071220858499778	-0.47629014254112056	0.0	0.8748746048809833	-0.5958427439941512	0.0	0.9901995071163285	-0.3472750250886912	0.0	0.9184852383408251	-0.47491838290584515	0.0	0.8939148036277373	-0.5765904291122228	0.0
17	0.5721153846153846	0.9358806974038867	-0.5838343713933901	0.0	0.9267813550906004	-0.5829529912565568	0.0	0.9593895407082036	-0.774142760968171	0.0	0.8619183444626727	-0.9214478009734665	0.0	0.9124168118458769	-0.9901499249272236	0.0	0.9253368545825842	-0.9903676533391201	0.0	0.8660975228561281	-0.9226485600020263	0.0	0.9624304561080812	-0.584375180456287	0.0	1.0208471993507264	-0.7655291032224664	0.0	0.977083101630045	-0.9488299894468397	0.0	1.0180083987275559	-0.9918087673293396	0.0	1.0047264677898244	-0.9845942668358669	0.0	0.9578500215610091	-0.9600017207787089	0.0	1.0132718080653045	-0.31046743485472955	0.0	1.0670615329389792	-0.19037810593177068	0.0	1.0847896364867569	-0.268448874074172	0.0	0.9780223323566406	-0.33882676762207553	0.0	0.9014372327255372	-0.4537777613687984	0.0	0.8364696769082052	-0.5607726233858188	0.0	1.000714580148194	-0.3398385978356184	0.0	0.9051010622962252	-0.4582364524067529	0.0	0.8553649389135164	-0.5515053966680258	0.0
18	0.6057692307692307	0.9432669462647515	-0.5751911604822822	0.0	0.9355076644014035	-0.5732300389995111	0.0	0.9820632846488048	-0.7677678149737218	0.0	0.8887654957768666	-0.9273162191703878	0.0	0.94643243051486	-0.993649096546241	0.0	0.9426389716023319	-0.9959095765840599	0.0	0.879413911744714	-0.9353664598474722	0.0	0.9654648668238726	-0.5745346448010554	0.0	1.0210642894947495	-0.7618772333573718	0.0	0.9761335677572262	-0.9476982224057017	0.0	1.0309205191633275	-0.9900467159107211	0.0	1.017080204031227	-0.9833710074096732	0.0	0.9552677383576206	-0.9621246813190011	0.0	1.0264281149135226	-0.30433244654011316	0.0	1.0836469880293318	-0.18527989729690122	0.0	1.099476332540249	-0.2624497999274073	0.0	0.9918317525961622	-0.32827169574860565	0.0	0.8948496168111092	-0.4261224525257829	0.0	0.8013903284150775	-0.5165627897798274	0.0	1.011974372070187	-0.33100583825211394	0.0	0.8961372606230419	-0.4369054158032299	0.0	0.8269272316763732	-0.5222351074278317	0.0
19	0.6394230769230769	0.9484060772505295	-0.5647526794816282	0.0	0.941650199384564	-0.561680936998833	0.0	1.0010608267156682	-0.7599960100358493	0.0	0.9173223167730497	-0.9346381627352607	0.0	0.9831926186980534	-0.9970247608435951	0.0	0.9677648720606248	-1.0017294033753894	0.0	0.8979518113631958	-0.9490905297373889	0.0	0.9663220166676759	-0.5629910789788097	0.0	1.021665740061563	-0.7564491386907308	0.0	0.9767399078353844	-0.9457323882922615	0.0	1.0459696420783782	-0.9879909984330398	0.0	1.0318259072433338	-0.98213885945031	0.0	0.9530895067320524	-0.9642583029594913	0.0	1.038560148472114	-0.29738057342336394	0.0	1.0999208137254861	-0.17984328819464168	0.0	1.1133381192791432	-0.25605893825337633	0.0	1.0042606193825925	-0.3167587444911374	0.0	0.8888492903380008	-0.39698673346160623	0.0	0.7725325609657876	-0.47010122656164177	0.0	1.0235887801792425	-0.32164565042175697	0.0	0.8919372517771884	-0.4135845858927825	0.0	0.8138605701613743	-0.49492843862092256	0.0
20	0.673076923076923	0.9520037330890369	-0.5541153467388219	0.0	0.9460144817125995	-0.5502419238318103	0.0	1.0171436961261993	-0.7516898013188128	0.0	0.9471153369611603	-0.9416098546214994	0.0	1.021164400419843	-0.9996963452370429	0.0	0.9999104915327752	-1.0068503637124695	0.0	0.9219278822573858	-0.9608618617829816	0.0	0.9660297085860061	-0.5514723670198455	0.0	1.0246515428070024	-0.7497707804488954	0.0	0.9803713752297457	-0.9428520720073427	0.0	1.060136887785667	-0.9860902058908309	0.0	1.0460548703781887	-0.9812674751983567	0.0	0.9531545688233953	-0.9652007676403581	0.0	1.049929908855012	-0.2909344022997229	0.0	1.1154886296695365	-0.17502587963947244	0.0	1.1264356267071751	-0.25033606677884646	0.0	1.0155225166641202	-0.3063767969058582	0.0	0.8849650310638011	-0.3708695839191127	0.0	0.7520872710902231	-0.4294471314609119	0.0	1.03544456349647	-0.31311453134262096	0.0	0.892024788964237	-0.39239315778649186	0.0	0.8165502793946627	-0.4758069928371227	0.0
21	0.7067307692307692	0.9550902202242085	-0.5453287255026221	0.0	0.9494793176673944	-0.5411563952587266	0.0	1.0314827620017137	-0.7439904505428501	0.0	0.9749719470740634	-0.9466995814504261	0.0	1.0555225552873808	-1.001488776012678	0.0	1.0326303690320064	-1.0106054192148672	0.0	0.947342940565724	-0.968923099264382	0.0	0.9661230834298257	-0.5421990106138372	0.0	1.031163312034469	-0.7431313387505563	0.0	0.9879405832169564	-0.9396565629372365	0.0	1.0734749560189252	-0.9846407287725286	0.0	1.0597695536516796	-0.9808346020959577	0.0	0.9573267759747146	-0.9650828903857178	0.0	1.0606570886902629	-0.28644291864633664	0.0	1.1295810728247904	-0.17175902013824307	0.0	1.1385809285434851	-0.24626149845793427	0.0	1.0257125776682994	-0.2991917421786597	0.0	0.8845494189423861	-0.3524152608779251	0.0	0.74205658436054	-0.40237038995301605	0.0	1.0476605555669602	-0.3071406256306568	0.0	0.8958928797585152	-0.3778916577586055	0.0	0.8298724250193865	-0.46795520441955957	0.0
